# xmcd CD database file
#
# Track frame offsets:
#	150
#	21250
#	42697
#	60532
#
# Disc length: 1083 seconds
#
# Revision: 0
# Processed by: cddbd v1.5.2PL0 Copyright (c) Steve Scherf et al.
# Submitted via: CD2WAV32(JP) R3.22
#
DISCID=32043904
DTITLE=滴草由実 - I still believe
DYEAR=2007
DGENRE=JPop
TTITLE0=I still believe　～ため息～
TTITLE1=Wonderful World
TTITLE2=Lovin'You
TTITLE3=I still believe　～ため息～(Instrumental)
EXTD=
EXTT0=
EXTT1=
EXTT2=
EXTT3=
PLAYORDER=
